<?xml version="1.0" encoding="UTF-8"?>
<svg xmlns="http://www.w3.org/2000/svg" xml:space="preserve" width="123.479mm" height="45.785mm" version="1.1"
 style="shape-rendering:geometricPrecision; text-rendering:geometricPrecision; image-rendering:optimizeQuality; fill-rule:evenodd; clip-rule:evenodd"
 viewBox="0 0 12347.86 4578.5"
 xmlns:xlink="http://www.w3.org/1999/xlink">
 <defs>
  <linearGradient id="id0" gradientUnits="userSpaceOnUse" x1="5400.18" y1="1881.71" x2="11639.74" y2="1881.71">
   <stop offset="0" style="stop-opacity:1; stop-color:#3BC0A8"/>
   <stop offset="1" style="stop-opacity:1; stop-color:#259F95"/>
  </linearGradient>
  <linearGradient id="id1" gradientUnits="userSpaceOnUse" x1="5392.68" y1="2805.1" x2="9385.59" y2="2805.1">
   <stop offset="0" style="stop-opacity:1; stop-color:#3BC0A8"/>
   <stop offset="1" style="stop-opacity:1; stop-color:#259F95"/>
  </linearGradient>
  <linearGradient id="id2" gradientUnits="userSpaceOnUse" x1="694.67" y1="2294.46" x2="4741.64" y2="2294.46">
   <stop offset="0" style="stop-opacity:1; stop-color:#3BC1A8"/>
   <stop offset="0.768627" style="stop-opacity:1; stop-color:#30B09E"/>
   <stop offset="1" style="stop-opacity:1; stop-color:#249E94"/>
  </linearGradient>
 </defs>
 <g id="Layer_x0020_1">
  <g id="_1218152641568">
   <path fill="url(#id2)" d="M2956.85 2559.72c-28.08,15.65 -138.09,115.52 -221.36,131.5 -90.02,17.29 -320.66,-151.23 -379.94,-325.33 -51.16,-150.26 12.64,-204.9 49.99,-261.07 54.34,-32.12 95.56,-59.5 172.88,-34.26 27.76,9.06 56.66,23.71 76.89,38.34l63.64 55.33c44.58,-34.01 86.67,-92.22 172,-102.07 191.09,-22.06 278.01,215.28 132.72,413.78 -27.84,38.01 -45.72,44.06 -66.82,83.78zm565.45 1747.82l-1608.16 6.77 0.19 -12.48c-10.52,-82.8 -23.68,-491.95 8.03,-537.09 201.64,-84.77 198.16,-108.63 439.27,-168.72 688.74,-171.68 763.88,-84.99 1078.28,-722.15 32.72,-88.81 168.35,-333.48 175.46,-404.2 -172.16,-141.29 -337.05,256.67 -370.64,285.75 -119.16,271.74 -462.02,379.77 -746.53,336.65 -67.26,-97.01 2.48,-273.28 -76.24,-339.82 -83.42,-16.97 -136.71,42.74 -174.5,89.92 -37.42,46.75 -58.25,113.03 -88.85,172.87 -40.2,78.65 -158.94,245.5 -241.82,271.44l-0.14 -192.32 -1221.98 0.19 3.53 -1603.59 1216.48 5.02 2.2 -1218.71c77.14,-22.46 672.47,-6.08 802.07,-5.99 266.78,0.19 533.67,-0.04 800.41,1.01l0.93 619.74c-12.51,53.81 -355.25,159.62 -399.13,171.76 -146.24,40.45 -311.33,67.12 -458.16,106.88 -303,82.06 -363.94,144.44 -497.17,352.63 -20.78,32.47 -35.59,57.63 -54.69,91.55 -16.3,28.96 -27.44,64.2 -50,84.51 -41.9,113.16 -211.85,396.36 -222.57,503.53 123.61,49.87 183.65,-14.79 240.79,-84.7 55.27,-67.59 93.01,-142.03 134.6,-218.06 58.07,-105.28 155.79,-211.47 273.69,-264.87 111.15,-50.35 339.04,-84.35 473.09,-61.13 44.66,92.48 19.84,246.47 59.61,334.63 83.22,21.84 127.99,-17.44 173.27,-70.02 58.91,-68.41 167.53,-383.95 326.74,-442.86l0.8 89.02c86.48,22 1008.86,-2.33 1219,8.12l1.47 1601.25 -879.79 -0.69 -341.32 -0.84 1.78 1215zm-1605.78 6.76c0.08,0.26 0.15,0.57 0.23,0.78 71.6,15.97 304.72,4.87 393.32,4.71l1111.32 -1.12c50.18,0.27 65.12,6.43 100.91,-11.13l-1605.78 6.76z"/>
   <text x="5325.59" y="2260.12" fill="url(#id0)" font-weight="500" font-size="994.51" font-family="Poppins, Arial, sans-serif">Rumah Sakit</text>
   <text x="5378.56" y="3087.92" fill="url(#id1)" font-weight="500" font-size="743.28" font-family="Poppins, Arial, sans-serif">Viamedika</text>
  </g>
 </g>
</svg>
